<svg width="16" height="29" viewBox="0 0 16 29" fill="none" xmlns="http://www.w3.org/2000/svg">
<path d="M9.33333 6.5V11.3333H13.6667C14 11.3333 14.1667 11.6667 14.1667 12L13.5 15.1667C13.5 15.3333 13.1667 15.5 13 15.5H9.33333V27.6667H4.33333V15.6667H1.5C1.16667 15.6667 1 15.5 1 15.1667V12C1 11.6667 1.16667 11.5 1.5 11.5H4.33333V6C4.33333 3.16667 6.5 1 9.33333 1H13.8333C14.1667 1 14.3333 1.16667 14.3333 1.5V5.5C14.3333 5.83333 14.1667 6 13.8333 6H9.83333C9.5 6 9.33333 6.16667 9.33333 6.5Z" stroke="white" stroke-width="1.5" stroke-miterlimit="10" stroke-linecap="round"/>
</svg>
