<svg width="29" height="29" viewBox="0 0 29 29" fill="none" xmlns="http://www.w3.org/2000/svg">
<path d="M10.8751 26.5832H18.1251C24.1667 26.5832 26.5834 24.1665 26.5834 18.1248V10.8748C26.5834 4.83317 24.1667 2.4165 18.1251 2.4165H10.8751C4.83341 2.4165 2.41675 4.83317 2.41675 10.8748V18.1248C2.41675 24.1665 4.83341 26.5832 10.8751 26.5832Z" stroke="white" stroke-width="1.5" stroke-linecap="round" stroke-linejoin="round"/>
<path d="M14.4999 18.7293C15.0553 18.7293 15.6052 18.6199 16.1184 18.4074C16.6315 18.1949 17.0977 17.8833 17.4904 17.4906C17.8831 17.0979 18.1946 16.6317 18.4072 16.1186C18.6197 15.6055 18.7291 15.0555 18.7291 14.5002C18.7291 13.9448 18.6197 13.3948 18.4072 12.8817C18.1946 12.3686 17.8831 11.9024 17.4904 11.5097C17.0977 11.117 16.6315 10.8055 16.1184 10.5929C15.6052 10.3804 15.0553 10.271 14.4999 10.271C13.3783 10.271 12.3026 10.7166 11.5094 11.5097C10.7163 12.3028 10.2708 13.3785 10.2708 14.5002C10.2708 15.6218 10.7163 16.6975 11.5094 17.4906C12.3026 18.2838 13.3783 18.7293 14.4999 18.7293Z" stroke="white" stroke-width="1.5" stroke-linecap="round" stroke-linejoin="round"/>
<path d="M21.3101 8.4585H21.3244" stroke="white" stroke-width="2" stroke-linecap="round" stroke-linejoin="round"/>
</svg>
